<svg id="Layer_1" data-name="Layer 1" xmlns="http://www.w3.org/2000/svg" xmlns:xlink="http://www.w3.org/1999/xlink" viewBox="0 0 37.19 40.33"><defs><style>.cls-1{fill:#231f20;}.cls-2{fill:#8e2781;}.cls-3{fill:url(#linear-gradient);}.cls-4{fill:#f16037;}</style><linearGradient id="linear-gradient" x1="17.99" y1="11.14" x2="21.17" y2="13.68" gradientUnits="userSpaceOnUse"><stop offset="0.14" stop-color="#341331"/><stop offset="1" stop-color="#8e2781"/></linearGradient></defs><title>WOTA Logo(new)</title><polygon class="cls-1" points="2.58 31.48 4.43 31.48 6.32 35.72 8.44 30.83 10.51 35.72 12.54 31.47 14.3 31.47 10.54 39.37 8.44 34.56 6.38 39.37 2.58 31.48"/><path class="cls-1" d="M18.85,31.35A3.85,3.85,0,1,0,22.7,35.2,3.85,3.85,0,0,0,18.85,31.35Zm0,6.3a2.47,2.47,0,0,1,0-4.91,2.47,2.47,0,0,1,0,4.91Z"/><path class="cls-1" d="M32.55,31.35a3.85,3.85,0,0,0,0,7.7c2.07,0,2.85-1.72,2.85-3.85S34.62,31.35,32.55,31.35Zm0,6.3a2.47,2.47,0,1,1,2.17-2.45A2.32,2.32,0,0,1,32.55,37.65Z"/><rect class="cls-1" x="24.06" y="31.48" width="3.72" height="1.56"/><rect class="cls-1" x="20.63" y="33.06" width="10.02" height="1.56" transform="translate(-8.2 59.48) rotate(-90)"/><rect class="cls-1" x="31.84" y="34.39" width="7.37" height="1.56" transform="translate(0.36 70.69) rotate(-90)"/><polygon class="cls-2" points="16.28 9.61 24.21 25.48 36.2 1.63 31.26 1.63 24.25 15.66 20.65 8.5 16.28 9.61"/><polygon class="cls-3" points="20.38 17.8 18.18 13.41 17.63 11.04 20.65 8.5 22.87 12.91 20.38 17.8"/><polygon class="cls-4" points="2.58 12.8 10.51 28.67 20.65 8.5 15.72 8.5 10.55 18.85 7.41 12.83 2.58 12.8"/></svg>